<?xml version="1.0" standalone="no"?>
<!DOCTYPE svg PUBLIC "-//W3C//DTD SVG 20010904//EN"
 "http://www.w3.org/TR/2001/REC-SVG-20010904/DTD/svg10.dtd">
<svg version="1.0" xmlns="http://www.w3.org/2000/svg"
 width="800.000000pt" height="800.000000pt" viewBox="0 0 800.000000 800.000000"
 preserveAspectRatio="xMidYMid meet">
<metadata>
Created by potrace 1.11, written by Peter Selinger 2001-2013
</metadata>
<g transform="translate(0.000000,800.000000) scale(0.100000,-0.100000)"
fill="#000000" stroke="none">
<path d="M0 4000 l0 -4000 4000 0 4000 0 0 1918 0 1917 -37 13 c-73 25 -73 25
-73 9 0 -8 12 -36 26 -62 24 -42 26 -53 20 -111 -4 -35 -20 -101 -37 -147 -42
-110 -47 -167 -20 -206 12 -16 21 -34 21 -40 0 -6 4 -11 10 -11 5 0 7 -6 4
-14 -3 -7 -13 -13 -22 -12 -23 1 -29 -69 -9 -92 18 -21 35 -75 39 -122 3 -34
2 -35 -29 -33 l-32 3 -2 -188 c-1 -103 -2 -212 -3 -242 0 -30 3 -70 7 -88 9
-32 6 -36 -60 -100 -37 -37 -120 -111 -183 -164 -63 -53 -189 -169 -280 -258
-182 -179 -232 -220 -266 -220 -25 0 -39 28 -30 57 10 32 -6 42 -139 97 -68
28 -114 66 -156 130 -23 34 -39 54 -36 45 8 -23 -3 -33 -54 -52 -49 -19 -89
-50 -89 -70 0 -22 261 -183 455 -281 206 -105 222 -117 333 -264 35 -48 60
-93 69 -125 25 -96 11 -135 -30 -86 -10 11 -22 19 -28 17 -5 -2 -51 -44 -102
-93 -159 -156 -246 -213 -472 -311 -165 -70 -304 -140 -333 -167 -12 -11 -28
-38 -34 -60 -15 -50 -30 -55 -72 -24 -41 32 -53 74 -22 73 13 -1 21 5 20 14
-1 9 7 17 18 17 20 2 48 26 48 42 0 6 5 11 10 11 12 0 1 53 -12 58 -4 2 -8 9
-8 15 -1 20 -43 65 -70 75 -25 9 -58 4 -125 -22 -48 -18 -94 -20 -116 -3 -10
7 -18 33 -21 64 -3 34 -14 64 -30 85 -13 18 -27 41 -31 51 -3 9 -10 17 -15 17
-5 0 -22 18 -37 41 -26 36 -27 43 -17 73 7 18 12 51 12 73 0 42 11 57 63 83
58 29 5 20 -115 -18 -68 -22 -150 -48 -183 -57 -75 -21 -449 -141 -780 -250
-137 -46 -317 -104 -400 -130 -82 -26 -163 -53 -180 -60 -16 -7 -50 -18 -75
-25 -25 -6 -142 -40 -260 -76 -404 -122 -445 -133 -490 -136 -60 -4 -63 17
-12 86 40 53 82 124 82 139 0 11 -49 -3 -103 -30 -26 -13 -53 -20 -60 -16 -18
10 -295 273 -618 586 -188 182 -304 302 -337 350 -43 61 -178 203 -314 330
-47 44 -52 94 -13 132 13 14 21 25 17 25 -4 0 -29 -24 -57 -52 -28 -29 -76
-74 -107 -100 -38 -32 -60 -60 -69 -85 -16 -50 -23 -58 -94 -105 -33 -23 -68
-50 -78 -62 l-18 -21 6 25 c19 72 59 135 138 217 46 48 102 114 125 145 23 31
66 76 96 100 30 24 66 64 81 91 40 72 59 81 165 74 103 -7 151 -25 230 -88 54
-43 56 -44 130 -44 84 1 262 33 254 46 -3 5 -20 9 -37 9 -20 0 -75 22 -139 55
-120 62 -238 104 -481 170 -306 83 -423 134 -995 432 -183 96 -212 116 -236
168 -27 57 -117 464 -123 557 -6 87 -6 87 19 97 14 5 79 15 144 21 66 6 166
17 223 26 57 8 110 13 117 10 11 -4 14 -30 14 -103 1 -142 9 -169 72 -228 63
-59 313 -229 448 -305 52 -30 138 -80 190 -113 52 -33 150 -86 217 -118 67
-32 157 -78 201 -103 44 -25 149 -74 234 -108 l153 -63 150 1 c83 1 233 6 334
11 170 8 313 0 368 -21 20 -8 16 -50 -8 -79 -14 -19 -18 -31 -11 -43 8 -15 11
-14 26 8 9 13 23 56 32 94 9 38 22 89 30 113 18 59 19 56 -20 81 l-35 21 -119
-21 c-190 -32 -197 -31 -268 39 -68 68 -103 81 -216 81 -90 0 -323 -25 -423
-44 -135 -28 -179 -29 -259 -10 -42 10 -84 26 -93 36 -16 17 -12 18 103 16
106 -2 124 0 161 20 48 25 62 42 36 42 -70 1 -174 13 -206 22 l-38 11 38 13
c60 19 193 25 193 9 0 -7 7 -16 16 -19 8 -3 12 -2 9 4 -3 6 3 10 14 10 12 0
21 -4 21 -9 0 -8 172 -16 285 -14 17 1 75 -6 130 -14 126 -18 199 -15 203 9 2
11 -8 25 -27 36 l-31 19 62 61 c35 34 69 62 75 62 7 0 22 -18 33 -40 38 -74
110 -140 153 -140 19 0 -54 197 -99 265 -39 59 -139 176 -161 189 -14 7 -15 4
-9 -25 19 -91 26 -191 16 -204 -24 -29 -77 -46 -118 -36 -22 4 -91 6 -154 4
-92 -4 -129 -1 -203 16 -123 29 -195 50 -225 65 -24 12 -77 29 -230 75 -76 22
-93 20 185 24 l170 2 80 49 c60 36 94 50 135 55 l55 6 -25 24 c-14 13 -49 41
-77 62 -29 22 -54 45 -54 52 -1 7 -3 23 -4 37 -5 47 41 106 87 111 26 3 68 -9
68 -19 0 -4 14 -21 30 -39 17 -18 30 -37 30 -43 0 -5 10 -26 23 -45 17 -28 27
-34 45 -30 15 4 24 0 28 -10 3 -8 10 -12 15 -9 14 8 11 -15 -11 -84 -20 -63
-25 -150 -12 -184 11 -28 52 -1 79 52 36 70 33 136 -12 266 -34 96 -39 123
-43 225 l-4 116 53 17 c54 18 103 47 127 76 7 8 37 51 66 95 29 44 76 104 105
133 61 62 61 56 0 195 -68 154 -109 264 -111 298 -3 33 -2 34 47 42 80 14 340
76 385 92 23 8 111 33 197 55 129 33 178 52 296 112 78 40 167 84 197 100 38
19 75 29 118 32 71 4 73 6 184 121 68 70 81 89 53 79 -13 -5 -14 -2 -5 21 6
15 8 30 6 33 -7 7 30 58 85 117 83 90 115 129 142 176 65 114 87 222 29 146
-15 -20 -52 -55 -82 -78 -130 -100 -199 -157 -253 -209 -32 -30 -100 -83 -150
-118 -93 -63 -167 -128 -167 -145 0 -14 -32 -36 -52 -37 -9 0 -18 -5 -20 -11
-3 -8 -20 -5 -53 10 -40 17 -47 24 -35 32 12 8 10 9 -6 4 -14 -4 -24 0 -28 10
-10 28 -90 9 -101 -25 -3 -9 -23 -27 -44 -41 -22 -13 -42 -32 -44 -41 -7 -24
-19 -23 -52 6 -29 25 -72 35 -129 28 -30 -3 -36 -9 -49 -45 -23 -65 -28 -95
-18 -114 5 -10 16 -39 24 -65 l14 -48 -36 -1 c-31 -1 -33 -2 -11 -8 23 -6 21
-8 -22 -20 -25 -7 -52 -10 -59 -6 -8 5 -10 4 -5 -3 5 -8 -3 -12 -26 -12 -18 0
-49 -5 -68 -11 -19 -6 -86 -12 -149 -14 -63 -2 -117 -8 -120 -13 -14 -23 -54
17 -83 84 -142 329 -158 375 -158 443 0 56 -2 61 -27 74 -78 38 -102 -41 -68
-228 8 -44 15 -94 15 -111 0 -25 6 -33 35 -47 41 -20 57 -48 86 -158 31 -117
31 -328 1 -479 -25 -120 -29 -268 -10 -416 9 -77 9 -97 -1 -104 -7 -4 -54 -13
-104 -19 -51 -7 -128 -18 -172 -26 -123 -22 -268 -36 -276 -28 -4 4 -9 40 -12
78 -6 114 -64 421 -101 540 -98 314 -147 487 -144 510 3 24 12 30 78 51 99 31
116 30 196 -11 38 -20 75 -34 83 -33 8 2 -6 13 -30 25 -24 12 -61 37 -82 56
l-37 35 33 15 c36 17 77 80 77 118 0 23 35 49 67 49 7 0 13 6 13 14 0 8 8 21
18 28 10 7 24 22 30 33 10 19 11 19 22 -9 6 -16 15 -74 21 -130 5 -55 14 -103
20 -104 5 -2 16 -10 24 -19 20 -20 66 -5 83 28 15 28 8 238 -10 292 -14 40
-63 109 -71 100 -4 -3 -7 1 -7 11 0 9 -7 19 -15 22 -8 4 -15 17 -15 30 0 13
-6 24 -12 24 -7 1 -3 6 10 14 l23 12 -23 12 c-21 10 -22 11 -3 12 11 1 29 2
40 1 l20 -1 -20 9 c-11 5 -34 10 -52 10 -42 1 -64 11 -56 25 14 23 -74 -55
-147 -129 -89 -91 -113 -105 -179 -105 -39 0 -67 9 -128 40 -43 22 -81 44 -86
49 -5 5 -29 -6 -55 -26 -85 -65 -131 -69 -214 -19 -65 39 -209 155 -318 255
-69 64 -73 70 -60 88 8 11 36 50 61 87 l47 68 -22 35 c-11 19 -39 55 -60 79
-44 50 -41 60 19 74 43 10 61 5 69 -18 3 -9 9 -24 13 -32 5 -13 4 -13 -13 0
-19 14 -19 14 0 -8 12 -13 14 -22 7 -22 -7 0 -9 -5 -6 -10 4 -6 12 -4 21 5 9
8 19 15 24 15 18 0 58 86 64 135 l6 51 -69 77 c-66 74 -101 129 -101 159 0 8
13 27 29 42 35 33 70 32 87 -4 46 -97 76 -174 89 -227 29 -118 116 -293 145
-293 5 0 22 29 39 65 18 37 37 65 46 65 8 0 15 -4 15 -10 0 -18 30 2 36 25 3
13 16 33 29 45 l24 23 10 -24 c5 -13 12 -41 16 -61 8 -53 23 -56 43 -9 19 47
25 48 69 21 34 -20 38 -31 47 -115 8 -66 32 -87 132 -110 43 -10 87 -22 97
-27 27 -14 90 27 170 111 37 39 72 71 76 71 13 0 21 -39 22 -115 l1 -70 12 56
c14 67 36 103 79 130 46 28 71 22 77 -20 l5 -34 34 28 c31 27 35 28 60 14 89
-50 -30 -188 -162 -189 -30 0 -46 -4 -42 -10 8 -13 90 -13 134 0 46 13 133 81
181 141 22 28 40 55 40 59 0 5 -20 23 -45 40 -25 17 -45 36 -45 43 0 7 14 30
30 51 16 22 33 55 36 75 4 20 13 61 21 91 18 73 17 202 -2 269 -26 84 -130
352 -164 420 -18 34 -47 86 -66 116 -20 30 -40 77 -45 103 -12 65 -40 137 -83
214 l-35 63 -62 -2 c-64 -1 -136 20 -125 37 3 6 0 11 -7 11 -22 3 102 19 189
25 65 5 94 2 131 -11 47 -17 49 -17 87 4 22 12 56 33 75 47 l35 26 9 -26 c6
-14 16 -26 23 -26 15 0 92 52 93 62 0 4 -23 19 -50 33 -28 14 -50 32 -50 40 0
11 -12 15 -44 15 -35 0 -46 -4 -51 -19 -6 -20 -33 -31 -77 -31 -23 0 -28 4
-28 25 l0 25 -1070 0 c-1037 0 -1070 -1 -1070 -19 0 -10 -12 -30 -27 -45 -26
-26 -26 -26 -47 -7 -12 10 -38 25 -60 32 -21 8 -41 20 -43 26 -4 10 -104 13
-459 13 l-454 0 0 -4000z m738 3823 c12 -10 25 -33 29 -52 14 -54 33 -60 92
-28 28 16 72 30 99 34 46 5 50 3 73 -26 25 -31 26 -31 60 -17 38 16 189 21
189 6 0 -5 14 -7 31 -5 28 4 30 2 25 -19 -3 -13 -9 -31 -12 -40 -3 -9 -2 -16
4 -16 5 0 13 11 16 25 4 16 25 38 54 56 45 30 50 30 128 24 74 -5 83 -4 110
17 25 20 39 23 112 21 46 -1 99 -7 117 -13 29 -10 39 -8 73 11 l40 23 36 -24
c19 -14 43 -40 53 -58 16 -29 21 -31 52 -26 19 4 44 15 55 25 11 11 23 19 27
19 4 0 10 8 14 19 8 26 82 58 97 43 14 -14 -4 -75 -29 -104 -17 -19 -32 -73
-39 -137 -2 -25 -7 -47 -9 -49 -4 -5 -32 -8 -77 -11 -10 -1 -18 -8 -18 -16 0
-8 -6 -12 -13 -9 -16 6 -33 -52 -52 -180 -17 -110 -28 -156 -57 -233 -19 -53
-43 -73 -34 -30 3 12 7 65 10 117 3 52 15 149 25 215 21 127 27 265 12 265
-21 0 -34 -38 -57 -167 -51 -295 -71 -371 -124 -469 l-31 -59 4 -130 c3 -71 9
-168 15 -214 10 -76 9 -86 -6 -98 -22 -16 -56 -9 -97 23 -17 13 -37 24 -43 24
-7 0 -12 3 -12 8 0 20 -199 102 -264 109 -56 6 -126 -20 -172 -62 -29 -27
-103 -159 -111 -197 -3 -15 -9 -26 -13 -23 -10 6 -20 -34 -27 -100 -8 -67 -7
-81 7 -142 16 -66 3 -103 -45 -129 -19 -10 -33 -22 -32 -28 1 -6 -13 -10 -30
-11 -18 0 -33 4 -33 8 0 5 -24 8 -52 7 -29 -2 -60 1 -69 4 -9 4 -49 0 -89 -8
-70 -15 -74 -15 -101 5 -16 11 -29 24 -29 29 0 12 -62 70 -75 70 -5 0 -42 -16
-82 -36 -53 -27 -79 -35 -98 -30 l-26 7 31 39 c29 36 33 52 45 153 7 62 11
125 8 140 -3 17 -27 46 -60 75 -29 26 -62 63 -73 82 -10 19 -31 48 -47 65 -25
27 -28 35 -26 96 5 151 87 239 225 239 50 0 68 4 68 13 0 18 -72 57 -105 57
-46 0 -65 19 -106 103 -48 99 -47 121 11 297 21 63 41 135 45 160 11 67 38
113 87 145 47 31 95 37 112 13 10 -13 14 -12 36 9 13 12 29 23 35 23 6 0 19
15 30 33 18 31 43 56 56 57 4 0 16 -8 27 -17z m2443 -676 c23 -28 25 -34 16
-79 -5 -26 -13 -48 -17 -48 -10 0 -70 136 -70 160 0 18 3 19 23 9 12 -7 34
-25 48 -42z m-362 -397 c6 -47 8 -113 5 -147 -6 -50 -3 -68 11 -89 17 -26 19
-26 92 -20 72 7 76 6 149 -31 40 -21 74 -41 74 -45 0 -10 -56 -48 -72 -48 -7
0 -33 23 -57 51 l-44 51 -51 -6 c-28 -3 -108 -1 -178 6 -123 11 -128 12 -128
34 0 22 101 232 148 308 13 21 27 34 31 30 5 -5 13 -47 20 -94z m155 -369 c20
-22 20 -21 -53 -79 -19 -14 -44 -49 -56 -77 -13 -27 -35 -61 -49 -75 l-27 -24
-67 17 c-124 33 -136 57 -79 168 32 63 32 64 72 62 22 -1 58 -5 80 -8 28 -4
55 0 90 14 63 25 68 25 89 2z m-1259 -93 c-13 -49 -88 -188 -101 -188 -23 0
-17 61 12 118 35 71 104 125 89 70z m104 -120 c7 -17 4 -28 -12 -45 -24 -27
-37 -21 -37 16 0 47 34 67 49 29z m-222 -130 c-3 -8 -6 -5 -6 6 -1 11 2 17 5
13 3 -3 4 -12 1 -19z m-17 -37 c0 -4 -14 -29 -31 -55 -21 -35 -33 -46 -41 -38
-16 16 46 117 65 105 4 -2 7 -8 7 -12z m-310 -224 c21 -17 23 -37 5 -37 -9 0
-18 -7 -22 -15 -7 -20 -79 -57 -164 -85 -35 -12 -97 -38 -137 -57 -65 -32
-152 -51 -152 -34 0 12 62 72 106 102 69 47 259 123 344 138 3 0 12 -5 20 -12z
m1594 -83 c5 -14 4 -15 -9 -4 -17 14 -19 20 -6 20 5 0 12 -7 15 -16z m-414
-209 c26 -32 -13 -81 -47 -59 -35 22 -23 74 17 74 10 0 23 -7 30 -15z m28
-281 c38 -26 22 -94 -23 -94 -42 0 -72 69 -43 98 16 16 39 15 66 -4z m-156
-76 c9 -8 29 -68 47 -139 17 -69 45 -166 61 -216 16 -49 41 -141 55 -204 14
-63 32 -141 40 -174 8 -33 19 -107 25 -165 6 -58 17 -128 25 -157 20 -67 19
-86 -4 -107 -38 -35 -222 -81 -441 -111 -58 -8 -140 -21 -182 -29 -85 -15
-257 -8 -295 12 -32 17 -57 65 -99 187 -32 94 -38 122 -37 195 0 92 15 151 29
116 6 -16 8 -15 20 10 l12 29 1 -27 c1 -22 6 -28 22 -28 16 0 20 5 16 20 -3
11 -1 23 4 26 16 10 9 47 -16 79 -13 18 -21 36 -17 40 4 5 -1 5 -11 2 -10 -4
-30 -7 -43 -7 -13 0 -33 -9 -44 -20 -29 -29 -54 -25 -67 10 -7 19 -8 30 -1 30
10 0 -61 87 -152 185 -53 57 -58 67 -94 188 -39 131 -41 171 -8 181 9 3 60 10
112 16 52 5 111 14 130 20 46 13 86 13 125 -2 26 -9 53 -8 132 5 128 22 133
22 178 -9 l38 -25 32 31 c17 17 45 35 61 40 47 14 327 12 346 -2z m1178 -122
c0 -5 -9 1 -20 14 -11 13 -20 28 -20 34 0 13 39 -35 40 -48z m24 -22 c3 -8 2
-12 -4 -9 -6 3 -10 10 -10 16 0 14 7 11 14 -7z m-944 -134 c38 -38 16 -89 -37
-90 -28 0 -63 33 -63 59 0 48 64 67 100 31z m884 -174 c19 3 28 -3 44 -33 10
-21 36 -69 56 -107 20 -38 36 -77 36 -87 0 -11 8 -27 18 -36 17 -18 19 -68 1
-58 -5 3 -6 0 -4 -8 6 -14 -76 -146 -99 -159 -16 -9 -34 18 -84 129 -53 115
-59 220 -22 347 10 32 14 37 21 24 6 -11 18 -15 33 -12z m-3208 -21 c8 -19 18
-35 24 -35 5 0 21 16 36 35 29 38 40 41 79 23 32 -14 32 -21 -7 -99 -40 -82
-39 -114 11 -214 36 -72 62 -148 93 -260 6 -22 17 -61 25 -87 8 -26 16 -100
18 -165 3 -83 10 -137 24 -183 22 -69 28 -181 12 -223 -12 -30 -90 -107 -108
-107 -8 0 -16 -6 -19 -14 -4 -10 -32 -16 -94 -21 -76 -6 -96 -4 -145 14 -30
12 -65 21 -76 21 -24 0 -49 22 -49 44 0 9 -5 16 -11 16 -13 0 -3 78 18 142 15
43 15 48 0 72 -19 29 -22 84 -6 139 6 23 7 49 1 70 -8 28 -5 36 20 62 29 29
29 32 22 100 -9 90 -8 441 2 564 6 83 10 98 32 118 14 13 38 23 54 23 24 0 32
-6 44 -35z m2418 -157 c23 -33 20 -65 -9 -84 -23 -15 -27 -15 -50 0 -50 33
-40 106 15 106 19 0 34 -8 44 -22z m-1057 -120 c-3 -8 -6 -5 -6 6 -1 11 2 17
5 13 3 -3 4 -12 1 -19z m1107 -214 c19 -18 21 -65 4 -82 -20 -20 -76 -15 -88
7 -32 61 37 123 84 75z m707 -1256 c3 -5 9 -9 13 -9 23 3 30 0 16 -8 -8 -6
-17 -8 -21 -5 -4 2 -10 0 -14 -6 -3 -5 -20 -10 -36 -10 -28 0 -109 -17 -202
-41 -42 -11 -84 -18 -137 -24 -19 -2 -39 -4 -45 -5 -5 -1 -24 -2 -41 -1 -41 1
-51 26 -20 46 27 18 224 58 239 48 5 -3 7 -2 4 4 -4 6 6 11 21 12 15 1 54 5
87 9 68 9 127 5 136 -10z m439 -97 c0 -45 -58 -65 -108 -37 l-24 13 34 15 c73
34 98 36 98 9z m-2889 -641 c44 -11 132 -40 197 -64 64 -24 131 -47 149 -50
17 -4 36 -13 42 -20 22 -26 -89 -1 -350 79 -73 23 -139 53 -139 65 0 14 10 13
101 -10z m-610 -30 c26 0 29 -4 29 -30 0 -23 4 -30 20 -30 11 0 23 -7 26 -15
4 -8 17 -15 29 -15 13 0 36 -5 52 -11 62 -24 140 -40 170 -34 39 7 35 22 -13
52 -19 13 -32 18 -29 13 3 -6 -1 -7 -9 -4 -9 3 -14 10 -11 14 3 4 -3 11 -13
15 -14 5 -10 9 18 22 40 17 176 10 196 -10 4 -4 16 -7 26 -7 10 0 18 -4 18
-10 0 -5 6 -10 14 -10 23 0 26 -14 11 -43 -7 -14 -11 -28 -7 -31 3 -3 0 -6 -6
-6 -7 0 -12 -4 -12 -10 0 -5 18 -10 41 -10 33 0 47 -6 72 -32 16 -18 34 -32
39 -30 4 1 8 -1 8 -6 0 -4 16 -16 35 -26 19 -11 35 -22 35 -26 0 -9 25 -13
103 -13 37 0 67 -4 67 -8 0 -5 9 -9 21 -9 11 0 33 -7 47 -14 15 -8 51 -25 80
-38 28 -13 52 -29 52 -36 0 -7 10 -17 23 -23 12 -5 32 -28 45 -50 13 -22 31
-43 40 -46 9 -4 25 -14 35 -22 22 -19 61 -90 53 -98 -10 -11 24 -61 68 -99 25
-21 85 -59 133 -84 101 -51 140 -88 221 -208 47 -70 71 -96 130 -137 43 -29
88 -71 109 -100 20 -27 56 -71 79 -97 24 -26 44 -54 44 -63 0 -8 4 -15 8 -15
5 0 14 -17 20 -37 30 -107 30 -109 10 -172 -18 -54 -18 -62 -5 -76 9 -8 27
-15 41 -15 14 0 26 -4 26 -10 0 -5 9 -10 20 -10 11 0 25 -9 32 -20 7 -11 18
-20 25 -20 7 0 15 -12 19 -27 3 -16 10 -43 16 -60 8 -27 6 -38 -12 -63 -12
-16 -27 -31 -33 -32 -7 0 -16 -2 -22 -2 -5 -1 -20 -7 -31 -14 -62 -34 -115
-43 -241 -40 -70 1 -202 1 -293 0 -214 -3 -282 1 -361 21 -169 41 -229 46
-275 22 -48 -25 -92 -29 -132 -12 -110 46 -270 65 -403 48 -52 -6 -123 -14
-159 -16 -36 -3 -87 -10 -115 -16 -65 -14 -158 7 -257 58 -122 63 -183 144
-222 298 -14 54 -26 123 -26 153 0 36 -8 71 -25 108 -14 30 -25 61 -25 70 0 8
15 45 34 82 28 57 34 83 42 172 5 58 7 162 6 231 -2 76 3 167 13 231 11 75 13
113 5 132 -13 36 -14 80 -5 233 4 73 12 130 16 127 5 -3 9 -1 9 4 0 5 10 13
23 17 l22 7 -25 7 c-24 7 -24 7 12 29 19 12 56 25 82 28 26 4 49 12 53 17 5 8
8 7 11 -1 2 -7 17 -12 33 -12z m1409 -107 c0 -19 -18 -16 -30 6 -17 33 -12 46
10 26 11 -10 20 -24 20 -32z m394 -98 c-7 -17 -82 -31 -96 -17 -8 8 -1 10 23
7 19 -2 28 -1 22 2 -7 2 -13 9 -13 15 0 6 6 6 15 -2 18 -15 49 -5 39 11 -4 8
-3 9 4 5 6 -4 9 -13 6 -21z m31 5 c-3 -5 -2 -10 4 -10 5 0 8 -11 7 -24 -2 -14
4 -28 16 -35 17 -11 19 -9 16 8 -2 11 2 20 7 20 6 -1 9 -6 7 -12 -2 -7 -4 -20
-5 -29 -1 -12 -5 -14 -11 -8 -6 6 -18 10 -28 10 -10 0 -18 5 -18 10 0 6 -8 10
-18 10 -32 0 -33 13 -5 42 27 28 39 36 28 18z m5325 -97 c-24 -21 -65 -56 -90
-79 -47 -42 -138 -99 -146 -91 -6 6 106 113 149 142 43 30 109 65 121 65 6 0
-10 -17 -34 -37z m-5085 -272 c6 -4 48 -23 95 -41 67 -27 97 -46 141 -90 31
-30 66 -69 77 -86 19 -28 20 -35 8 -58 -7 -14 -16 -23 -19 -19 -4 3 -7 1 -7
-5 0 -21 -34 -13 -103 23 -91 48 -138 83 -229 172 -100 97 -103 128 -13 116
22 -2 45 -8 50 -12z m1947 -823 c8 -13 25 -52 37 -88 13 -36 38 -97 57 -137
58 -126 72 -224 36 -256 -37 -34 -189 -46 -207 -16 -4 5 -17 9 -31 9 -13 0
-24 5 -24 10 0 6 -20 10 -43 10 -71 0 -217 57 -217 84 0 8 -7 16 -15 20 -8 3
-15 14 -15 24 0 10 -5 23 -11 29 -8 8 -8 17 0 31 6 11 11 33 11 49 0 62 73
141 154 166 32 10 92 34 134 52 92 40 115 42 134 13z m2028 -298 c0 -5 -9 -14
-20 -20 -22 -12 -27 -1 -8 18 14 14 28 16 28 2z m-2696 -70 c61 -21 86 -36 86
-52 0 -13 -80 -48 -111 -48 -34 0 -129 42 -152 68 -18 19 -18 20 5 36 30 22
100 20 172 -4z m1216 6 c25 -8 44 -19 43 -25 -2 -6 3 -11 11 -11 20 0 13 -72
-10 -103 -23 -31 -119 -77 -161 -77 -17 0 -37 8 -45 18 -17 19 -73 151 -67
155 2 2 31 15 64 30 68 30 101 33 165 13z m-250 -122 c0 -17 4 -23 13 -18 6 4
9 4 5 -1 -4 -4 -3 -14 3 -22 9 -10 8 -13 -5 -13 -9 0 -16 5 -16 10 0 6 -7 10
-15 10 -20 0 -32 50 -14 60 19 12 29 3 29 -26z"/>
<path d="M482 6623 c7 -16 16 -33 21 -40 5 -7 5 -18 1 -24 -4 -8 -3 -9 5 -5 9
6 10 0 6 -21 -5 -19 -4 -24 3 -14 8 11 11 9 18 -10 4 -13 7 -28 5 -33 -1 -5 3
-12 9 -16 7 -4 20 -37 29 -74 15 -57 20 -65 30 -52 13 15 8 61 -9 96 -20 40
-38 88 -44 116 -7 31 -60 104 -77 104 -4 0 -3 -12 3 -27z"/>
<path d="M3422 4650 c0 -14 2 -19 5 -12 2 6 2 18 0 25 -3 6 -5 1 -5 -13z"/>
<path d="M860 2010 c0 -5 5 -10 10 -10 6 0 10 5 10 10 0 6 -4 10 -10 10 -5 0
-10 -4 -10 -10z"/>
<path d="M4159 7995 c-1 -3 -2 -8 -3 -12 -5 -30 -20 -35 -85 -29 -36 4 -75 7
-85 7 -19 0 -76 -47 -76 -63 0 -5 16 -16 35 -24 38 -15 152 -11 189 8 24 13
40 -3 31 -32 -6 -18 -12 -21 -39 -17 l-31 6 34 -15 c41 -18 58 -13 71 22 11
27 11 27 88 21 42 -4 115 -18 161 -32 70 -21 105 -25 205 -25 116 0 121 1 147
26 l27 26 29 -22 c22 -16 49 -23 104 -27 92 -6 229 10 244 30 7 10 41 15 117
19 64 4 118 12 137 21 24 12 33 12 48 2 12 -8 84 -14 216 -18 165 -6 204 -4
234 8 29 12 43 13 70 4 23 -7 33 -16 29 -25 -7 -17 -7 -17 84 2 51 11 133 16
258 16 100 1 182 5 182 10 0 4 5 8 11 8 6 0 24 9 40 21 23 16 39 20 67 16 35
-6 36 -5 10 6 -21 8 -28 18 -28 39 l0 28 -81 0 -81 0 4 -45 c2 -35 0 -44 -10
-40 -8 3 -18 5 -23 5 -5 0 -9 18 -9 40 0 36 -2 40 -26 40 -23 0 -25 -3 -22
-37 2 -28 -1 -38 -17 -44 -28 -11 -57 -10 -75 1 -12 8 -10 14 13 38 15 15 27
31 27 35 0 4 -34 7 -75 7 -45 0 -75 -4 -75 -10 0 -6 7 -27 15 -47 8 -20 14
-37 13 -38 -2 0 -26 -6 -54 -11 l-52 -10 -6 58 -7 58 -253 0 c-245 0 -254 -1
-259 -20 -3 -11 -10 -20 -15 -20 -6 0 -14 9 -17 20 -6 19 -15 20 -340 20
l-333 0 -7 -22 -8 -23 -4 23 c-4 22 -4 22 -219 22 -207 0 -214 -1 -214 -20 0
-11 -7 -20 -15 -20 -8 0 -15 9 -15 20 0 19 -7 20 -140 20 -77 0 -141 -2 -141
-5z m1905 -69 c41 -17 49 -46 13 -46 -35 0 -107 38 -107 56 0 19 34 15 94 -10z
m-984 -59 c0 -14 -20 -37 -32 -37 -10 0 -11 34 -1 43 11 12 33 8 33 -6z"/>
<path d="M6812 7950 c3 -28 8 -53 11 -56 15 -16 130 -34 212 -34 60 0 100 -5
119 -15 25 -13 35 -13 90 1 38 10 82 14 116 11 68 -6 182 -57 234 -104 34 -31
43 -34 76 -29 37 6 41 3 84 -46 25 -29 56 -79 70 -113 13 -33 36 -91 52 -130
15 -38 41 -90 57 -114 l30 -45 -10 -114 c-8 -101 -12 -117 -32 -133 -22 -18
-22 -19 -3 -19 26 0 32 -18 32 -97 0 -96 -17 -143 -56 -159 -47 -20 -49 -31
-15 -61 37 -32 39 -61 15 -177 -13 -64 -15 -126 -10 -369 3 -161 8 -320 12
-354 4 -43 1 -83 -10 -126 -9 -35 -17 -99 -18 -143 -3 -75 -2 -79 20 -82 26
-4 27 -14 7 -50 -8 -15 -28 -63 -45 -107 -42 -107 -40 -178 9 -254 24 -37 34
-64 34 -92 0 -22 3 -42 7 -44 15 -9 -29 -129 -56 -153 l-26 -23 -37 27 c-20
15 -81 73 -136 128 -55 56 -146 139 -202 184 -55 45 -110 93 -121 107 -11 14
-25 25 -32 25 -19 0 -39 -32 -40 -61 0 -30 44 -69 477 -428 67 -55 129 -111
138 -124 21 -32 69 -66 105 -73 l30 -6 0 1751 0 1751 -596 0 -597 0 5 -50z"/>
<path d="M3681 7961 c0 -8 -8 -19 -17 -26 -29 -20 -2 -53 51 -61 50 -7 131 2
140 16 6 9 -48 70 -62 70 -5 0 -14 -9 -21 -20 -21 -34 -75 -24 -85 15 -2 11
-5 14 -6 6z"/>
<path d="M4760 5265 c7 -8 20 -15 28 -15 13 0 12 3 -4 15 -25 19 -40 19 -24 0z"/>
<path d="M4820 5230 c35 -24 54 -31 30 -11 -14 11 -29 21 -35 21 -5 0 -3 -5 5
-10z"/>
<path d="M4920 5167 c0 -2 15 -16 33 -33 l32 -29 -29 33 c-28 30 -36 37 -36
29z"/>
<path d="M5200 4840 c6 -11 13 -20 16 -20 2 0 0 9 -6 20 -6 11 -13 20 -16 20
-2 0 0 -9 6 -20z"/>
<path d="M5256 4737 c3 -10 9 -15 12 -12 3 3 0 11 -7 18 -10 9 -11 8 -5 -6z"/>
<path d="M5270 4706 c0 -11 79 -189 80 -179 0 13 -70 183 -76 183 -2 0 -4 -2
-4 -4z"/>
<path d="M5601 4652 c-8 -3 -42 -22 -75 -43 -67 -44 -69 -45 -91 -23 -9 9 -17
15 -19 13 -2 -2 5 -55 16 -117 l19 -113 -26 -79 c-15 -46 -42 -99 -64 -127
-20 -26 -52 -73 -71 -103 -71 -117 -147 -225 -201 -286 -41 -46 -66 -88 -94
-156 -40 -97 -76 -163 -104 -188 -36 -33 -110 -80 -166 -105 -33 -15 -68 -31
-77 -36 -23 -12 -91 -11 -242 2 -111 10 -126 9 -149 -6 -14 -9 -27 -16 -29
-15 -3 1 -5 1 -78 -21 -25 -8 -49 -12 -55 -10 -5 2 -17 4 -25 6 -8 1 -14 9
-12 16 2 8 0 11 -4 6 -4 -4 -25 19 -46 50 -46 70 -50 64 -6 -9 53 -90 75 -108
129 -108 61 0 116 -41 184 -140 27 -40 66 -85 85 -99 35 -26 35 -26 -8 23 -45
53 -51 66 -26 66 9 0 12 -5 8 -12 -5 -9 -2 -9 9 1 13 10 26 11 54 4 21 -5 59
-8 85 -6 85 6 225 -25 335 -73 17 -8 38 -14 46 -14 23 0 139 -31 161 -42 16
-9 18 -7 13 7 -4 9 -7 21 -7 26 0 6 -4 8 -9 5 -11 -7 -43 28 -34 37 3 4 0 7
-8 7 -8 0 -27 11 -42 25 -15 14 -64 51 -110 82 -82 57 -109 82 -101 95 7 12
34 -2 125 -64 85 -58 251 -188 384 -302 80 -68 226 -165 264 -175 16 -5 61 1
116 15 50 12 85 23 79 23 -6 1 -17 15 -24 32 -9 20 -41 50 -93 86 -43 31 -96
78 -117 104 -82 105 -155 180 -180 186 -14 3 -36 14 -49 25 -13 10 -29 18 -36
18 -38 0 -114 107 -165 232 -31 80 -32 103 -5 158 7 14 16 41 19 60 13 77 24
98 153 291 40 60 86 136 103 169 33 66 97 143 111 134 5 -3 9 -1 9 4 0 6 12
13 26 16 15 4 43 20 63 37 24 19 68 37 127 53 81 22 249 76 299 97 63 26 90
31 186 30 84 -1 108 2 112 13 3 8 30 30 59 49 29 18 60 42 68 52 14 18 14 18
-9 3 -26 -18 -58 -10 -97 24 -36 32 -166 76 -220 76 -27 -1 -52 -6 -56 -12 -5
-8 -13 -8 -27 1 -12 7 -22 9 -26 3 -3 -5 -22 -3 -46 5 -22 8 -56 14 -76 13
-30 -1 -40 -8 -62 -40 -43 -64 -77 -102 -111 -122 l-32 -18 8 33 c9 36 9 89 0
125 -6 24 -23 34 -45 26z"/>
<path d="M5361 4464 c0 -11 3 -14 6 -6 3 7 2 16 -1 19 -3 4 -6 -2 -5 -13z"/>
<path d="M7888 4458 c-8 -13 -29 -54 -46 -92 -37 -80 -35 -87 39 -111 47 -16
89 -54 89 -80 0 -7 7 -18 15 -25 13 -11 15 6 15 144 0 140 -2 157 -17 162 -10
3 -26 10 -35 15 -28 14 -45 11 -60 -13z"/>
<path d="M7417 4418 c-30 -60 -127 -279 -127 -287 0 -5 -12 -25 -26 -46 l-26
-38 22 -40 c14 -24 25 -65 29 -110 l6 -71 47 -29 c57 -36 69 -30 105 51 38 87
33 98 -54 126 -28 10 -57 23 -63 31 -9 10 5 50 60 177 97 221 98 223 75 248
-24 27 -29 26 -48 -12z"/>
<path d="M3504 3009 c-7 -12 43 -31 84 -31 52 0 47 7 -18 24 -34 9 -63 12 -66
7z"/>
<path d="M4164 2735 c-9 -14 -45 -47 -80 -75 -35 -28 -72 -67 -83 -88 -11 -21
-27 -44 -35 -51 -31 -26 -18 -34 49 -28 36 4 73 11 84 16 25 14 108 251 87
251 -3 0 -13 -11 -22 -25z"/>
<path d="M7149 2713 c-13 -16 -12 -17 4 -4 16 13 21 21 13 21 -2 0 -10 -8 -17
-17z"/>
<path d="M7119 2673 c-13 -16 -12 -17 4 -4 9 7 17 15 17 17 0 8 -8 3 -21 -13z"/>
<path d="M4326 2639 c-39 -46 -60 -89 -48 -101 6 -6 26 -6 52 -1 41 8 43 10
44 48 1 22 6 49 11 59 6 14 5 17 -3 12 -7 -4 -12 -2 -12 3 0 20 -18 11 -44
-20z"/>
<path d="M7050 2590 c-23 -27 -40 -50 -37 -50 3 0 24 23 47 50 23 28 40 50 37
50 -3 0 -24 -22 -47 -50z"/>
<path d="M6989 2513 c-13 -16 -12 -17 4 -4 9 7 17 15 17 17 0 8 -8 3 -21 -13z"/>
<path d="M6592 2478 c12 -33 59 -181 78 -246 12 -41 23 -72 26 -70 9 10 -91
328 -103 328 -3 0 -3 -6 -1 -12z"/>
<path d="M6959 2473 c-13 -16 -12 -17 4 -4 16 13 21 21 13 21 -2 0 -10 -8 -17
-17z"/>
<path d="M2588 2253 c7 -3 16 -2 19 1 4 3 -2 6 -13 5 -11 0 -14 -3 -6 -6z"/>
<path d="M2348 2203 c6 -2 18 -2 25 0 6 3 1 5 -13 5 -14 0 -19 -2 -12 -5z"/>
<path d="M2263 2193 c15 -2 37 -2 50 0 12 2 0 4 -28 4 -27 0 -38 -2 -22 -4z"/>
<path d="M6479 1883 c-13 -16 -12 -17 4 -4 16 13 21 21 13 21 -2 0 -10 -8 -17
-17z"/>
<path d="M6444 1838 c-30 -34 -47 -58 -42 -58 3 0 19 18 37 40 34 43 38 55 5
18z"/>
<path d="M6304 1668 c-61 -76 -85 -112 -46 -68 38 42 114 140 109 140 -3 0
-31 -33 -63 -72z"/>
<path d="M5214 1685 c-16 -24 -12 -65 7 -65 11 0 29 43 29 71 0 26 -16 24 -36
-6z"/>
</g>
</svg>
